<svg xmlns="http://www.w3.org/2000/svg" x="0" y="0" enable-background="new 0 0 330.6 36.2" version="1.1" viewBox="0 0 330.6 36.2" xml:space="preserve" class="mr-2 lg:mr-10 w-3/4 sm:w-1/3"><path fill="#ADBDC4" d="M4 12.5h22.7V4L4 12.5z"/><path fill="#79858E" d="M26.7 4v30L37.4 0 26.7 4z"/><path fill="#ADBDC4" d="M26.7 12.5h-8.6L26.7 34V12.5z"/><path fill="#91A1AA" d="M4 12.5L20.3 18l-2.2-5.5H4z"/><path fill="#79858E" d="M56 26.1c-.1.1-.3.3-.6.5s-.7.4-1.1.6c-.5.2-1 .3-1.7.5-.7.1-1.4.2-2.3.2-1.7 0-3.1-.3-4.4-.8-1.2-.5-2.2-1.3-3-2.3s-1.4-2.1-1.8-3.4c-.4-1.3-.6-2.8-.6-4.3 0-1.6.2-3 .6-4.4.4-1.3 1-2.5 1.8-3.5s1.8-1.7 3-2.3c1.2-.5 2.6-.8 4.3-.8.8 0 1.5.1 2.2.2s1.2.3 1.7.5.9.4 1.2.6c.3.2.6.4.7.5.2.2.3.4.5.6.1.2.2.5.2.7 0 .4-.2.8-.5 1.2s-.7.8-1 1.2l-.8-.8c-.3-.3-.7-.5-1-.7-.4-.2-.8-.4-1.3-.5s-1-.2-1.6-.2c-1.1 0-1.9.2-2.7.6-.7.4-1.3 1-1.7 1.7s-.7 1.5-.9 2.3c-.2.9-.3 1.8-.3 2.7 0 1 .1 1.9.3 2.8s.5 1.7 1 2.4 1.1 1.2 1.8 1.6 1.7.6 2.8.6c.6 0 1.1-.1 1.6-.2s.9-.3 1.3-.5.7-.4 1-.7c.3-.2.5-.4.7-.6.1.1.3.3.4.5.2.2.3.4.5.7.1.2.3.5.4.7.1.2.2.4.2.6 0 .3-.1.5-.2.7-.3.4-.5.6-.7.8zm16-2.3c0 1.6.2 2.8.7 3.6-.4.1-.7.3-1 .3-.3.1-.7.1-1 .1-.8 0-1.3-.1-1.7-.4-.4-.3-.6-.7-.7-1.3-.5.5-1.1.9-1.8 1.2-.8.3-1.7.5-2.8.5-.6 0-1.1-.1-1.7-.2-.6-.2-1.1-.4-1.5-.8-.5-.4-.8-.8-1.1-1.4s-.4-1.3-.4-2.2c0-1.1.3-1.9.8-2.6s1.2-1.2 1.9-1.6c.8-.4 1.6-.6 2.5-.8.9-.1 1.7-.2 2.5-.3h1.4v-.6c0-.8-.2-1.4-.6-1.7s-1.1-.5-2.1-.5c-.9 0-1.7.1-2.4.4-.7.3-1.4.6-2 1-.3-.4-.5-.7-.7-1.2-.2-.4-.3-.7-.3-1s.2-.6.5-.8c.3-.3.8-.5 1.3-.7.6-.2 1.2-.4 1.9-.5s1.5-.2 2.3-.2c1.1 0 2.1.1 2.9.3s1.4.6 1.9 1.1.8 1.1 1 1.8c.2.7.3 1.6.3 2.5l-.1 6zm-4-3.7h-.8c-.5 0-1 .1-1.5.2s-1 .2-1.4.4c-.4.2-.7.5-1 .8s-.4.8-.4 1.3c0 .6.2 1.1.5 1.5s.9.6 1.7.6c.4 0 .8-.1 1.1-.2.4-.1.7-.2.9-.4.3-.2.5-.3.6-.5.2-.2.2-.4.2-.5l.1-3.2zM79.8 14c.3-.4.9-.8 1.6-1.2s1.6-.6 2.7-.6c.8 0 1.5.1 2.2.4.7.3 1.3.7 1.9 1.3.5.6 1 1.4 1.3 2.3.3 1 .5 2.1.5 3.5 0 1.6-.2 3-.6 4-.4 1.1-.9 1.9-1.5 2.5s-1.3 1-2 1.3-1.5.4-2.2.4c-.6 0-1.1-.1-1.6-.2-.4-.1-.8-.3-1.1-.5-.3-.2-.6-.3-.7-.5l-.3-.3V34h-4.3V12.6c.1 0 .2 0 .4-.1h1c.7 0 1.3.1 1.8.3.5.2.8.6.9 1.2zm5.6 5.8c0-.6-.1-1.2-.2-1.8-.1-.5-.3-1-.5-1.4s-.6-.7-1-.9-.9-.3-1.5-.3c-.9 0-1.5.2-1.8.5-.3.3-.5.7-.5 1.1v6.6c.2.2.5.4.9.6s.9.3 1.5.3c1.1 0 1.8-.4 2.3-1.3.6-.8.8-1.9.8-3.4zm7.8 5.3c-.1-.4-.2-.9-.3-1.3 0-.5-.1-.9-.1-1.4V7.9c.1 0 .3 0 .5-.1h1c.3 0 .7 0 1 .1s.6.2.9.4.5.4.7.8c.2.3.3.7.3 1.3v2.2h4.4v3.2h-4.4v6.7c0 1.5.6 2.2 1.8 2.2.3 0 .6 0 .8-.1.3-.1.5-.2.7-.3.2-.1.4-.2.5-.4s.3-.2.3-.3c.3.5.6.9.7 1.2.2.3.3.7.3.9 0 .3-.1.5-.3.8-.2.3-.5.5-.9.7s-.9.4-1.4.5c-.6.1-1.2.2-1.8.2-1.3 0-2.3-.3-3-.8-.9-.5-1.4-1.1-1.7-2zm19-.4c.5 0 1-.1 1.4-.2s.8-.3 1.1-.4c.3-.2.6-.3.8-.5.2-.2.4-.4.6-.5.3.3.5.7.8 1.2s.4.9.4 1.2c0 .5-.3.9-.8 1.3-.4.3-1.1.6-1.9.9-.8.2-1.7.4-2.8.4-1 0-1.9-.1-2.9-.4-.9-.3-1.8-.7-2.5-1.3-.7-.6-1.3-1.5-1.8-2.5-.5-1.1-.7-2.4-.7-4 0-1.3.2-2.4.6-3.4.4-.9.9-1.7 1.6-2.4.7-.6 1.4-1.1 2.3-1.4.9-.3 1.7-.4 2.6-.4 1.2 0 2.2.2 3 .5.8.4 1.5.9 2 1.5s.9 1.3 1.1 2.1.3 1.6.3 2.5V20.7h-9.2c.1 1.1.4 2.1 1.1 2.9.6.7 1.6 1.1 2.9 1.1zm1.5-6.3c0-1-.2-1.8-.6-2.4-.4-.6-1.1-.9-2.1-.9-.9 0-1.5.3-2.1.9-.5.6-.8 1.4-.8 2.5l5.6-.1zm11.2-4.4c.1-.2.3-.4.5-.6.2-.2.5-.4.8-.6.3-.2.6-.3 1-.5.4-.1.8-.2 1.2-.2.3 0 .5 0 .8.1.3 0 .5.1.8.2.2.1.4.3.6.5.1.2.2.4.2.7 0 .5-.1 1-.3 1.6s-.5 1.1-.7 1.5c-.4-.3-.7-.5-1.1-.7-.4-.2-.8-.2-1.3-.2-.6 0-1.2.2-1.6.6-.4.4-.7.8-.7 1.3v10.1h-4.3V12.6c.1 0 .2 0 .4-.1h1c.7 0 1.2.1 1.7.4.6.2.9.6 1 1.1zm12.1 0c.1-.2.3-.4.5-.6.2-.2.5-.4.8-.6.3-.2.6-.3 1-.5.4-.1.8-.2 1.2-.2.3 0 .5 0 .8.1.3 0 .5.1.8.2.2.1.4.3.6.5.1.2.2.4.2.7 0 .5-.1 1-.3 1.6s-.5 1.1-.7 1.5c-.4-.3-.7-.5-1.1-.7-.4-.2-.8-.2-1.3-.2-.6 0-1.2.2-1.6.6-.4.4-.7.8-.7 1.3v10.1h-4.3V12.6c.1 0 .2 0 .4-.1h1c.7 0 1.2.1 1.7.4.6.2.9.6 1 1.1zm20.3 9.8c0 1.6.2 2.8.7 3.6-.4.1-.7.3-1 .3-.3.1-.7.1-1 .1-.8 0-1.3-.1-1.7-.4s-.6-.7-.7-1.3c-.5.5-1.1.9-1.8 1.2-.8.3-1.7.5-2.8.5-.6 0-1.1-.1-1.7-.2-.6-.2-1.1-.4-1.5-.8-.5-.4-.8-.8-1.1-1.4s-.4-1.3-.4-2.2c0-1.1.3-1.9.8-2.6s1.2-1.2 1.9-1.6c.8-.4 1.6-.6 2.5-.8.9-.1 1.7-.2 2.5-.3h1.4v-.6c0-.8-.2-1.4-.6-1.7-.4-.3-1.1-.5-2.1-.5-.9 0-1.7.1-2.4.4-.7.3-1.4.6-2 1-.3-.4-.5-.7-.7-1.2-.2-.4-.3-.7-.3-1s.2-.6.5-.8c.3-.3.8-.5 1.3-.7.6-.2 1.2-.4 1.9-.5s1.5-.2 2.3-.2c1.1 0 2.1.1 2.9.3.8.2 1.4.6 1.9 1.1s.8 1.1 1 1.8c.2.7.3 1.6.3 2.5l-.1 6zm-4-3.7h-.8c-.5 0-1 .1-1.5.2s-1 .2-1.4.4c-.4.2-.7.5-1 .8s-.4.8-.4 1.3c0 .6.2 1.1.5 1.5s.9.6 1.7.6c.4 0 .8-.1 1.1-.2.4-.1.7-.2.9-.4.3-.2.5-.3.6-.5.2-.2.2-.4.2-.5l.1-3.2z"/><g fill="#79858E"><path d="M185.7 9.7l-2.6 5.3-5.8.8c-1 .2-1.5 1.4-.7 2.2l4.2 4.1-1 5.8c-.2 1 .9 1.8 1.8 1.3l5.2-2.7 5.2 2.7c.9.5 2-.3 1.8-1.3l-1-5.8L197 18c.8-.7.3-2-.7-2.2l-5.8-.8-2.5-5.3c-.5-1-1.8-1-2.3 0zM217.8 9.7l-2.6 5.3-5.8.8c-1 .2-1.5 1.4-.7 2.2l4.2 4.1-1 5.8c-.2 1 .9 1.8 1.8 1.3l5.2-2.7 5.2 2.7c.9.5 2-.3 1.8-1.3l-1-5.8 4.2-4.1c.8-.7.3-2-.7-2.2l-5.8-.8-2.6-5.3c-.4-1-1.7-1-2.2 0zM249.3 9.7l-2.6 5.3-5.8.8c-1 .2-1.5 1.4-.7 2.2l4.2 4.1-1 5.8c-.2 1 .9 1.8 1.8 1.3l5.2-2.7 5.2 2.7c.9.5 2-.3 1.8-1.3l-1-5.8 4.2-4.1c.8-.7.3-2-.7-2.2l-5.8-.8-2.6-5.3c-.4-1-1.8-1-2.2 0zM281.4 9.7l-2.6 5.3-5.8.8c-1 .2-1.5 1.4-.7 2.2l4.2 4.1-1 5.8c-.2 1 .9 1.8 1.8 1.3l5.2-2.7 5.2 2.7c.9.5 2-.3 1.8-1.3l-1-5.8 4.2-4.1c.8-.7.3-2-.7-2.2l-5.8-.8-2.6-5.3c-.4-1-1.7-1-2.2 0zM312.8 9.7l-2.6 5.3-5.8.8c-1 .2-1.5 1.4-.7 2.2l4.2 4.1-1 5.8c-.2 1 .9 1.8 1.8 1.3l5.2-2.7 5.2 2.7c.9.5 2-.3 1.8-1.3l-1-5.8 4.2-4.1c.8-.7.3-2-.7-2.2l-5.8-.8-2.6-5.3c-.4-1-1.7-1-2.2 0z"/></g></svg>