<svg xmlns="http://www.w3.org/2000/svg" x="0" y="0" enable-background="new 0 0 181.5 36.2" viewBox="0 0 181.5 36.2" class="w-1/2 sm:w-1/4"><g fill="#79858e"><path d="M16 15.2v3.5h8.3c-.3 2-.9 3.4-1.9 4.4-1.2 1.2-3.1 2.6-6.4 2.6-5.1 0-9.2-4.1-9.2-9.3s4-9.3 9.2-9.3c2.8 0 4.8 1.1 6.3 2.5l2.5-2.5c-2.1-2-4.9-3.5-8.7-3.5-7 0-13 5.7-13 12.8S9 29.1 16 29.1c3.8 0 6.7-1.2 8.9-3.6 2.3-2.3 3-5.6 3-8.2 0-.8-.1-1.6-.2-2.2H16v.1zM38.4 12.3c-4.6 0-8.3 3.5-8.3 8.2s3.7 8.2 8.3 8.2 8.3-3.5 8.3-8.2-3.7-8.2-8.3-8.2zm0 13.3c-2.5 0-4.7-2.1-4.7-5 0-3 2.2-5 4.7-5s4.7 2 4.7 5c0 2.9-2.2 5-4.7 5zM79 14.2c-.9-1-2.5-1.8-4.4-1.8-4.1 0-7.7 3.6-7.7 8.2s3.6 8.2 7.7 8.2c2 0 3.5-.9 4.3-1.9h.1V28c0 3.2-1.7 4.8-4.4 4.8-2.2 0-3.6-1.6-4.2-2.9l-3.2 1.3c.9 2.2 3.3 4.9 7.3 4.9 4.2 0 7.8-2.5 7.8-8.6V12.8H79v1.4zm-4.2 11.4c-2.5 0-4.4-2.1-4.4-5s1.9-5 4.4-5 4.4 2.1 4.4 5-1.9 5-4.4 5zM56.9 12.3c-4.6 0-8.3 3.5-8.3 8.2s3.7 8.2 8.3 8.2 8.3-3.5 8.3-8.2c-.1-4.7-3.8-8.2-8.3-8.2zm0 13.3c-2.5 0-4.7-2.1-4.7-5 0-3 2.2-5 4.7-5s4.7 2 4.7 5c-.1 2.9-2.2 5-4.7 5zM85.2 3.9h3.6v24.9h-3.6V3.9zM99.8 25.6c-1.8 0-3.2-.8-4-2.5l11-4.6-.4-.9c-.7-1.8-2.8-5.3-7.1-5.3-4.2 0-7.8 3.3-7.8 8.2 0 4.6 3.5 8.2 8.2 8.2 3.8 0 6-2.3 6.9-3.6l-2.8-1.9c-.9 1.5-2.1 2.4-4 2.4zm-.2-10.2c1.5 0 2.7.8 3.1 1.8l-7.5 3.1c0-3.4 2.5-4.9 4.4-4.9z"/></g><path fill="#676767" d="M165.5 33.7h-34.1c-7.2 0-13-5.8-13-13V17c0-7.2 5.8-13 13-13h34.1c7.2 0 13 5.8 13 13v3.7c0 7.2-5.8 13-13 13z"/><path fill="#fff" d="M162.1 12.7l-1.7 3.4-3.7.5c-.7.1-.9.9-.5 1.4l2.7 2.6-.6 3.7c-.1.7.6 1.2 1.2.9l3.3-1.8 3.3 1.8c.6.3 1.3-.2 1.2-.9l-.6-3.7 2.7-2.6c.5-.5.2-1.3-.5-1.4l-3.7-.5-1.7-3.4c-.2-.6-1.1-.6-1.4 0z"/><g fill="#fff" stroke="#fff" stroke-miterlimit="10" stroke-width="0.5"><path d="M136.5 21.2v1.6H135V25h-2v-2.2h-4.9v-1.5l5.2-7.5h1.6v7.4h1.6zm-6.5 0h3v-4.3l-3 4.3zM138.8 22.7h2.2v2.2h-2.2v-2.2zM151.2 20.2c.4.5.6 1.1.6 1.7s-.2 1.2-.5 1.7c-.4.5-.8.8-1.5 1.1-.6.3-1.4.4-2.2.4s-1.6-.1-2.2-.4c-.6-.3-1.1-.6-1.5-1.1s-.5-1-.5-1.7.2-1.3.6-1.7c.4-.5 1-.8 1.7-1-.6-.2-1.1-.5-1.5-1s-.5-1-.5-1.6c0-.6.2-1.1.5-1.6s.8-.8 1.4-1.1c.6-.2 1.3-.4 2-.4.8 0 1.4.1 2 .4.6.2 1.1.6 1.4 1.1.3.5.5 1 .5 1.6 0 .6-.2 1.1-.5 1.6-.4.5-.9.8-1.5 1 .7.2 1.3.5 1.7 1zm-1.9 2.8c.4-.3.6-.7.6-1.3 0-.5-.2-.9-.6-1.2-.4-.3-1-.5-1.7-.6-.7.1-1.2.3-1.7.6-.4.3-.6.7-.6 1.2s.2 1 .6 1.3c.4.3 1 .4 1.7.4.7.1 1.3-.1 1.7-.4zm-3.2-7.4c-.4.3-.5.7-.5 1.2s.2.9.5 1.2c.4.3.8.5 1.5.6.6-.1 1.1-.3 1.5-.6.4-.3.5-.7.5-1.2s-.2-.9-.5-1.2c-.4-.3-.8-.4-1.5-.4-.6 0-1.1.1-1.5.4z"/></g></svg>