<svg width="347" height="600" viewBox="0 0 347 600" fill="none" xmlns="http://www.w3.org/2000/svg">
<path d="M165.46 598.35L107 564.542V561.023L165.46 594.831V598.35ZM186.959 585.618L165.46 598.353V594.831L186.959 582.099V585.618ZM186.959 582.099L128.499 548.291L107 561.023L165.46 594.831L186.959 582.099ZM126.351 569.212L117.493 564.304V563.148L126.351 568.052V569.212ZM135.379 563.929L126.351 569.212V568.052L135.379 562.769V563.929ZM117.493 563.148L126.351 568.052L135.379 562.769L126.521 557.865L117.493 563.148ZM122.89 566.133L117.493 563.148V557.662L122.89 560.65V566.133ZM131.869 560.815L122.89 566.136V560.65L131.869 555.329V560.815ZM127.73 565.992C127.73 566.347 127.149 566.638 126.436 566.638C125.72 566.638 125.142 566.347 125.142 565.992C125.142 565.634 125.72 565.343 126.436 565.343C127.149 565.343 127.73 565.634 127.73 565.992ZM166.754 592.072C166.754 592.427 166.173 592.718 165.46 592.718C164.744 592.718 164.165 592.427 164.165 592.072C164.165 591.714 164.744 591.424 165.46 591.424C166.173 591.424 166.754 591.714 166.754 592.072ZM111.77 560.823C111.77 561.181 111.192 561.472 110.475 561.472C109.759 561.472 109.181 561.181 109.181 560.823C109.181 560.465 109.759 560.178 110.475 560.178C111.192 560.178 111.77 560.465 111.77 560.823ZM184.449 581.905C184.449 582.264 183.871 582.551 183.155 582.551C182.439 582.551 181.86 582.264 181.86 581.905C181.86 581.547 182.439 581.257 183.155 581.257C183.871 581.257 184.449 581.547 184.449 581.905ZM133.163 562.769C133.163 563.127 132.585 563.418 131.869 563.418C131.155 563.418 130.574 563.127 130.574 562.769C130.574 562.414 131.155 562.124 131.869 562.124C132.585 562.124 133.163 562.414 133.163 562.769ZM122.482 561.898C122.482 561.898 121.872 562.347 119.11 560.967C116.351 559.588 114.869 558.308 114.869 558.308C114.869 558.308 113.082 556.163 113.387 552.177C113.695 548.191 115.38 545.482 116.454 543.745C117.528 542.007 118.855 540.425 119.521 538.993C120.184 537.563 119.724 534.394 119.724 534.394L128.769 533.628V545.074V556.418L122.482 561.898ZM124.886 561.375C121.259 563.148 118.949 560.272 118.949 560.272C118.949 560.272 117.161 558.123 117.47 554.137C117.775 550.152 119.462 547.446 120.534 545.708C121.608 543.971 122.934 542.386 123.601 540.953C124.264 539.524 123.803 536.354 123.803 536.354L129.75 534.655L129.588 539.812C129.588 539.812 134.542 540.73 134.542 546.709C134.542 549.136 133.929 555.329 131.117 557.662C129.723 558.822 127.657 560.022 124.886 561.375ZM130.865 534.872C130.865 536.877 128.074 538.503 124.631 538.503C121.188 538.503 118.397 536.877 118.397 534.872C118.397 532.87 121.188 531.244 124.631 531.244C128.074 531.244 130.865 532.87 130.865 534.872ZM118.397 533.628H130.865V534.984H118.397V533.628ZM130.865 533.628C130.865 535.632 128.074 537.255 124.631 537.255C121.188 537.255 118.397 535.632 118.397 533.628C118.397 531.623 121.188 530 124.631 530C128.074 530 130.865 531.623 130.865 533.628ZM129.001 533.628C129.001 535.033 127.043 536.172 124.631 536.172C122.215 536.172 120.261 535.033 120.261 533.628C120.261 532.222 122.215 531.083 124.631 531.083C127.043 531.083 129.001 532.222 129.001 533.628ZM132.576 553.139C134.824 548.49 134.196 543.539 131.176 542.08C128.156 540.619 123.885 543.205 121.64 547.854C119.392 552.5 120.02 557.454 123.04 558.913C126.06 560.371 130.331 557.786 132.576 553.139ZM133.198 553.609C135.446 548.96 134.818 544.009 131.798 542.55C128.778 541.091 124.508 543.674 122.259 548.323C120.014 552.972 120.642 557.924 123.662 559.382C126.682 560.844 130.953 558.258 133.198 553.609ZM132.661 553.412C134.487 549.635 133.976 545.611 131.522 544.423C129.066 543.237 125.597 545.338 123.771 549.119C121.945 552.896 122.453 556.92 124.91 558.108C127.363 559.294 130.835 557.193 132.661 553.412ZM132.121 553.09C133.671 549.882 133.236 546.465 131.152 545.459C129.072 544.452 126.125 546.236 124.575 549.441C123.025 552.649 123.46 556.066 125.544 557.069C127.628 558.079 130.571 556.295 132.121 553.09ZM140.318 554.912L140.867 559.511L137.618 560.729L133.885 562.631L127.739 559.297V554.167C127.789 553.327 128.018 552.417 128.449 551.522C129.653 549.036 131.936 547.654 133.556 548.432L133.729 548.532L139.737 551.795L140.318 554.912ZM131.376 556.444C131.866 557.293 131.819 558.235 131.273 558.549C130.727 558.863 129.887 558.431 129.4 557.586C128.91 556.738 128.957 555.796 129.5 555.482C130.046 555.165 130.885 555.596 131.376 556.444ZM137.756 550.718C137.756 550.718 137.313 550.604 136.656 550.789C134.076 551.513 132.802 554.369 132.802 554.369L129.758 552.858C129.758 552.858 131.026 549.623 133.48 549.104C134.202 548.948 134.783 549.104 134.783 549.104L137.756 550.718ZM136.562 570.512L133.885 569.118V567.958L136.562 569.355V570.512ZM143.544 566.476L136.562 570.515V569.355L143.544 565.317V566.476ZM140.867 563.879L133.885 567.914V557.771L140.867 553.732V563.879ZM143.544 565.317L140.867 563.879L133.885 567.914L136.562 569.355L143.544 565.317ZM140.486 557.712C141.689 555.223 141.352 552.576 139.734 551.792C138.12 551.012 135.834 552.397 134.633 554.883C133.43 557.372 133.765 560.022 135.382 560.803C136.999 561.583 139.282 560.201 140.486 557.712ZM140.568 552.194L139.737 551.795L135.382 560.803L136.215 561.205L140.568 552.194ZM141.316 558.114C142.52 555.625 142.182 552.978 140.568 552.197C138.951 551.414 136.664 552.799 135.464 555.285C134.261 557.774 134.598 560.424 136.212 561.205C137.83 561.986 140.116 560.603 141.316 558.114ZM139.341 557.345C139.667 556.67 139.576 555.954 139.139 555.743C138.698 555.529 138.079 555.904 137.753 556.579C137.428 557.254 137.518 557.973 137.959 558.185C138.396 558.396 139.015 558.02 139.341 557.345ZM138.648 554.202C138.848 553.791 138.792 553.351 138.525 553.222C138.255 553.09 137.877 553.321 137.677 553.732C137.477 554.146 137.533 554.586 137.803 554.716C138.07 554.845 138.449 554.616 138.648 554.202ZM140.718 553.935C140.917 553.521 140.861 553.081 140.594 552.952C140.324 552.823 139.946 553.051 139.746 553.465C139.547 553.876 139.602 554.316 139.869 554.449C140.139 554.578 140.518 554.346 140.718 553.935ZM141.325 555.916C141.525 555.505 141.469 555.065 141.199 554.933C140.932 554.804 140.55 555.035 140.351 555.446C140.151 555.86 140.207 556.3 140.477 556.43C140.744 556.559 141.126 556.33 141.325 555.916ZM140.718 558.305C140.917 557.891 140.861 557.451 140.594 557.322C140.324 557.193 139.946 557.422 139.746 557.835C139.547 558.249 139.602 558.69 139.869 558.819C140.139 558.948 140.518 558.719 140.718 558.305ZM139.136 559.869C139.335 559.456 139.279 559.015 139.012 558.886C138.742 558.757 138.364 558.986 138.164 559.4C137.965 559.814 138.02 560.251 138.287 560.383C138.557 560.512 138.936 560.283 139.136 559.869ZM137.122 560.034C137.322 559.62 137.266 559.18 136.999 559.051C136.729 558.921 136.35 559.15 136.151 559.564C135.951 559.978 136.007 560.415 136.277 560.547C136.544 560.677 136.923 560.448 137.122 560.034ZM136.383 558.158C136.582 557.747 136.526 557.307 136.256 557.178C135.989 557.046 135.611 557.278 135.411 557.689C135.212 558.103 135.267 558.543 135.534 558.672C135.804 558.801 136.183 558.572 136.383 558.158ZM137.122 555.916C137.322 555.505 137.266 555.065 136.999 554.933C136.729 554.804 136.35 555.035 136.151 555.446C135.951 555.86 136.007 556.3 136.277 556.43C136.544 556.559 136.923 556.33 137.122 555.916ZM138.965 557.16C139.112 556.858 139.071 556.535 138.872 556.441C138.675 556.345 138.399 556.515 138.252 556.817C138.105 557.119 138.147 557.442 138.343 557.539C138.54 557.633 138.819 557.466 138.965 557.16ZM138.872 556.441L141.983 558.164L141.378 559.171L138.343 557.539L138.872 556.441ZM141.947 558.901C142.341 558.091 142.232 557.225 141.704 556.973C141.178 556.717 140.433 557.169 140.04 557.979C139.649 558.789 139.758 559.652 140.286 559.908C140.812 560.163 141.557 559.711 141.947 558.901ZM141.704 556.97L144.014 558.088L142.593 561.023L140.286 559.908L141.704 556.97ZM144.257 560.016C144.651 559.206 144.539 558.34 144.014 558.088C143.485 557.833 142.743 558.285 142.35 559.095C141.959 559.905 142.068 560.768 142.593 561.023C143.121 561.278 143.867 560.826 144.257 560.016ZM143.661 559.729C143.808 559.423 143.767 559.1 143.568 559.007C143.371 558.91 143.095 559.08 142.948 559.382C142.801 559.685 142.843 560.007 143.039 560.104C143.236 560.198 143.515 560.031 143.661 559.729ZM143.568 559.007L146.679 560.732L146.074 561.739L143.039 560.104L143.568 559.007ZM137.381 567.861C137.381 568.087 137.014 568.272 136.562 568.272C136.11 568.272 135.746 568.087 135.746 567.861C135.746 567.635 136.11 567.453 136.562 567.453C137.014 567.453 137.381 567.635 137.381 567.861ZM141.686 565.343C141.686 565.569 141.319 565.751 140.867 565.751C140.415 565.751 140.051 565.569 140.051 565.343C140.051 565.117 140.415 564.935 140.867 564.935C141.319 564.935 141.686 565.117 141.686 565.343ZM160.042 589.839L140.23 578.442V573.588L160.042 584.984V589.839ZM167.896 581.55L160.042 585.692V584.984L167.896 580.846V581.55ZM160.796 585.289L160.042 585.692V589.839L160.796 589.437V585.289ZM140.233 573.588L150.741 567.861L172.58 578.375L160.042 584.984L140.233 573.588ZM155.293 566.432C157.535 561.795 156.907 556.852 153.893 555.397C150.879 553.938 146.62 556.518 144.378 561.158C142.135 565.798 142.76 570.738 145.775 572.196C148.789 573.652 153.051 571.072 155.293 566.432ZM171.283 564.891L153.893 555.397L145.775 572.196L163.162 581.691L171.283 564.891ZM157.095 557.169C154.081 555.713 149.822 558.293 147.58 562.931C145.337 567.571 145.962 572.513 148.977 573.969L157.095 557.169ZM164.468 584.761L159.067 581.773V568.545L164.468 571.53V584.761ZM175.97 564.885L170.572 561.898L159.07 568.545L164.468 571.53L175.97 564.885ZM175.97 564.885V578.072L164.468 584.761V571.53L175.97 564.885ZM175.11 577.253C176.956 573.435 176.44 569.364 173.957 568.167C171.476 566.966 167.969 569.091 166.123 572.91C164.277 576.731 164.793 580.799 167.274 581.996C169.757 583.197 173.264 581.072 175.11 577.253ZM173.959 568.167L176.319 569.305L169.633 583.138L167.274 581.996L173.959 568.167ZM177.361 578.342C179.207 574.521 178.694 570.453 176.211 569.256C173.728 568.055 170.22 570.18 168.374 573.999C166.528 577.817 167.045 581.888 169.528 583.085C172.008 584.286 175.515 582.161 177.361 578.342ZM176.539 577.946C177.637 575.671 177.332 573.253 175.855 572.54C174.379 571.824 172.292 573.089 171.195 575.36C170.094 577.632 170.402 580.053 171.879 580.767C173.355 581.48 175.442 580.218 176.539 577.946Z" stroke="#7CE7F2" stroke-opacity="0.4" stroke-width="2.5" stroke-linejoin="round"/>
<path d="M165.459 598.351L107 564.543V561.022L165.459 594.831V598.351Z" fill="#246DD7"/>
<path d="M186.959 585.619L165.459 598.352V594.831L186.959 582.099V585.619Z" fill="#1D64BB"/>
<path d="M186.959 582.099L128.5 548.29L107 561.022L165.459 594.831L186.959 582.099Z" fill="#337BF1"/>
<path d="M126.351 569.211L117.493 564.305V563.147L126.351 568.053V569.211Z" fill="#246DD7"/>
<path d="M135.378 563.928L126.35 569.21V568.053L135.378 562.77V563.928Z" fill="#1D64BB"/>
<path d="M117.493 563.147L126.35 568.052L135.378 562.77L126.521 557.865L117.493 563.147Z" fill="#337BF1"/>
<path d="M122.891 566.134L117.493 563.147V557.662L122.891 560.65V566.134Z" fill="#246DD7"/>
<path d="M131.869 560.813L122.89 566.134V560.649L131.869 555.329V560.813Z" fill="#145284"/>
<path d="M127.73 565.99C127.73 566.348 127.15 566.638 126.436 566.638C125.72 566.638 125.141 566.348 125.141 565.99C125.141 565.633 125.72 565.343 126.436 565.343C127.15 565.343 127.73 565.633 127.73 565.99Z" stroke="#7BE7F1" stroke-width="0.6965" stroke-miterlimit="10"/>
<path d="M166.754 592.071C166.754 592.429 166.174 592.718 165.459 592.718C164.744 592.718 164.164 592.429 164.164 592.071C164.164 591.714 164.744 591.424 165.459 591.424C166.174 591.424 166.754 591.714 166.754 592.071Z" stroke="#7BE7F1" stroke-width="0.6965" stroke-miterlimit="10"/>
<path d="M111.77 560.824C111.77 561.181 111.19 561.471 110.475 561.471C109.76 561.471 109.181 561.181 109.181 560.824C109.181 560.466 109.76 560.176 110.475 560.176C111.19 560.176 111.77 560.466 111.77 560.824Z" stroke="#7BE7F1" stroke-width="0.6965" stroke-miterlimit="10"/>
<path d="M184.45 581.905C184.45 582.262 183.87 582.552 183.155 582.552C182.44 582.552 181.86 582.262 181.86 581.905C181.86 581.547 182.44 581.258 183.155 581.258C183.87 581.258 184.45 581.547 184.45 581.905Z" stroke="#7BE7F1" stroke-width="0.6965" stroke-miterlimit="10"/>
<path d="M133.164 562.77C133.164 563.128 132.584 563.418 131.869 563.418C131.154 563.418 130.575 563.128 130.575 562.77C130.575 562.413 131.154 562.123 131.869 562.123C132.584 562.123 133.164 562.413 133.164 562.77Z" stroke="#7BE7F1" stroke-width="0.6965" stroke-miterlimit="10"/>
<path d="M122.484 561.898C122.484 561.898 121.871 562.346 119.111 560.967C116.352 559.587 114.87 558.309 114.87 558.309C114.87 558.309 113.081 556.163 113.388 552.177C113.695 548.191 115.381 545.483 116.454 543.746C117.527 542.008 118.856 540.424 119.52 538.993C120.184 537.563 119.724 534.395 119.724 534.395L128.769 533.628V545.074V556.419L122.484 561.898Z" fill="#337BF1"/>
<path d="M124.886 561.375C121.258 563.147 118.95 560.27 118.95 560.27C118.95 560.27 117.161 558.124 117.468 554.138C117.774 550.153 119.461 547.444 120.534 545.707C121.607 543.969 122.936 542.385 123.6 540.955C124.265 539.524 123.804 536.355 123.804 536.355L129.749 534.655L129.587 539.811C129.587 539.811 134.543 540.731 134.543 546.71C134.543 549.136 133.93 555.328 131.118 557.662C129.722 558.82 127.658 560.022 124.886 561.375Z" fill="#1D64BB"/>
<path d="M130.864 534.874C130.864 536.877 128.073 538.502 124.63 538.502C121.187 538.502 118.396 536.877 118.396 534.874C118.396 532.87 121.187 531.245 124.63 531.245C128.073 531.245 130.864 532.87 130.864 534.874Z" fill="#246DD7"/>
<path d="M118.396 533.628H130.864V534.982H118.396V533.628Z" fill="#246DD7"/>
<path d="M130.864 533.628C130.864 535.632 128.073 537.256 124.63 537.256C121.187 537.256 118.396 535.632 118.396 533.628C118.396 531.624 121.187 530 124.63 530C128.073 530 130.864 531.624 130.864 533.628Z" fill="#337BF1"/>
<path d="M129.001 533.628C129.001 535.033 127.044 536.172 124.63 536.172C122.216 536.172 120.259 535.033 120.259 533.628C120.259 532.223 122.216 531.084 124.63 531.084C127.044 531.084 129.001 532.223 129.001 533.628Z" fill="#145284"/>
<path d="M132.577 553.139C134.824 548.49 134.196 543.539 131.176 542.079C128.156 540.62 123.886 543.205 121.64 547.853C119.393 552.501 120.021 557.453 123.041 558.913C126.061 560.372 130.331 557.787 132.577 553.139Z" fill="#1D64BB"/>
<path d="M133.199 553.609C135.445 548.961 134.818 544.01 131.798 542.55C128.777 541.09 124.507 543.675 122.261 548.324C120.015 552.972 120.642 557.924 123.662 559.383C126.683 560.843 130.953 558.258 133.199 553.609Z" fill="#145284"/>
<path d="M132.661 553.414C134.487 549.635 133.977 545.61 131.522 544.424C129.067 543.237 125.596 545.339 123.77 549.117C121.944 552.896 122.455 556.921 124.91 558.107C127.365 559.294 130.835 557.192 132.661 553.414Z" stroke="#7BE7F1" stroke-width="0.6965" stroke-miterlimit="10"/>
<path d="M132.121 553.088C133.67 549.882 133.238 546.466 131.154 545.46C129.071 544.453 126.126 546.236 124.576 549.442C123.027 552.649 123.46 556.064 125.543 557.071C127.626 558.078 130.572 556.295 132.121 553.088Z" fill="#246DD7"/>
<path d="M140.318 554.911L140.868 559.51L137.617 560.729L133.884 562.63L127.74 559.296V554.167C127.789 553.327 128.018 552.417 128.449 551.523C129.654 549.038 131.937 547.653 133.556 548.433L133.731 548.531L139.737 551.796L140.318 554.911Z" fill="#5ADCE1"/>
<path d="M131.376 556.444C131.865 557.291 131.819 558.234 131.273 558.549C130.727 558.864 129.888 558.432 129.399 557.585C128.91 556.738 128.956 555.796 129.502 555.48C130.047 555.166 130.887 555.597 131.376 556.444Z" stroke="#337BF1" stroke-width="0.4645" stroke-miterlimit="10"/>
<path d="M137.755 550.718C137.755 550.718 137.312 550.604 136.656 550.789C134.076 551.515 132.803 554.369 132.803 554.369L129.757 552.859C129.757 552.859 131.027 549.622 133.479 549.103C134.203 548.949 134.783 549.103 134.783 549.103" stroke="#337BF1" stroke-width="0.4645" stroke-miterlimit="10" stroke-linecap="round"/>
<path d="M136.562 570.513L133.884 569.117V567.959L136.562 569.355V570.513Z" fill="#246DD7"/>
<path d="M143.545 566.476L136.562 570.514V569.355L143.545 565.317V566.476Z" fill="#1D64BB"/>
<path d="M140.868 563.877L133.884 567.915V557.77L140.868 553.733V563.877Z" fill="#145284"/>
<path d="M143.545 565.317L140.868 563.877L133.884 567.915L136.562 569.355L143.545 565.317Z" fill="#337BF1"/>
<path d="M140.486 557.712C141.688 555.224 141.352 552.575 139.736 551.794C138.119 551.013 135.834 552.396 134.632 554.884C133.43 557.372 133.766 560.021 135.382 560.802C136.998 561.583 139.284 560.2 140.486 557.712Z" fill="#1D64BB"/>
<path d="M140.567 552.196L139.737 551.796L135.382 560.802L136.214 561.204L140.567 552.196Z" fill="#1D64BB"/>
<path d="M141.317 558.114C142.519 555.627 142.184 552.977 140.567 552.196C138.951 551.415 136.666 552.798 135.464 555.286C134.261 557.774 134.597 560.423 136.214 561.204C137.83 561.986 140.115 560.602 141.317 558.114Z" fill="#7BE7F1"/>
<path d="M139.342 557.346C139.667 556.672 139.577 555.954 139.139 555.742C138.7 555.53 138.08 555.905 137.754 556.579C137.428 557.254 137.519 557.972 137.958 558.184C138.396 558.396 139.016 558.021 139.342 557.346Z" fill="#246DD7"/>
<path d="M138.649 554.203C138.849 553.79 138.793 553.35 138.525 553.22C138.256 553.091 137.877 553.32 137.677 553.733C137.478 554.147 137.533 554.587 137.802 554.716C138.07 554.846 138.45 554.616 138.649 554.203Z" stroke="#337BF1" stroke-width="0.4645" stroke-miterlimit="10"/>
<path d="M140.718 553.934C140.918 553.521 140.862 553.081 140.593 552.951C140.325 552.821 139.946 553.051 139.746 553.464C139.547 553.877 139.602 554.317 139.871 554.447C140.139 554.576 140.518 554.347 140.718 553.934Z" stroke="#337BF1" stroke-width="0.4645" stroke-miterlimit="10"/>
<path d="M141.324 555.917C141.524 555.504 141.468 555.064 141.199 554.934C140.931 554.804 140.551 555.034 140.352 555.447C140.152 555.861 140.208 556.301 140.476 556.43C140.745 556.56 141.124 556.33 141.324 555.917Z" stroke="#337BF1" stroke-width="0.4645" stroke-miterlimit="10"/>
<path d="M140.718 558.305C140.918 557.892 140.862 557.453 140.593 557.323C140.325 557.193 139.946 557.423 139.746 557.836C139.547 558.249 139.602 558.689 139.871 558.819C140.139 558.948 140.518 558.719 140.718 558.305Z" stroke="#337BF1" stroke-width="0.4645" stroke-miterlimit="10"/>
<path d="M139.136 559.869C139.336 559.456 139.279 559.016 139.011 558.886C138.743 558.756 138.363 558.986 138.164 559.399C137.964 559.812 138.02 560.252 138.288 560.382C138.557 560.511 138.936 560.282 139.136 559.869Z" stroke="#337BF1" stroke-width="0.4645" stroke-miterlimit="10"/>
<path d="M137.123 560.033C137.323 559.62 137.267 559.18 136.999 559.05C136.73 558.921 136.351 559.15 136.151 559.564C135.952 559.977 136.007 560.417 136.276 560.547C136.544 560.676 136.924 560.446 137.123 560.033Z" stroke="#337BF1" stroke-width="0.4645" stroke-miterlimit="10"/>
<path d="M136.382 558.16C136.582 557.747 136.526 557.307 136.258 557.177C135.989 557.047 135.61 557.277 135.41 557.69C135.211 558.103 135.266 558.543 135.535 558.673C135.803 558.803 136.182 558.573 136.382 558.16Z" stroke="#337BF1" stroke-width="0.4645" stroke-miterlimit="10"/>
<path d="M137.123 555.917C137.323 555.504 137.267 555.064 136.999 554.934C136.73 554.804 136.351 555.034 136.151 555.447C135.952 555.861 136.007 556.301 136.276 556.43C136.544 556.56 136.924 556.33 137.123 555.917Z" stroke="#337BF1" stroke-width="0.4645" stroke-miterlimit="10"/>
<path d="M138.964 557.162C139.111 556.858 139.07 556.536 138.873 556.44C138.676 556.345 138.397 556.514 138.251 556.817C138.105 557.12 138.146 557.443 138.343 557.538C138.54 557.633 138.818 557.464 138.964 557.162Z" fill="#145284"/>
<path d="M138.873 556.44L141.984 558.165L141.378 559.172L138.343 557.538L138.873 556.44Z" fill="#145284"/>
<path d="M141.949 558.9C142.34 558.09 142.231 557.226 141.704 556.971C141.177 556.717 140.433 557.168 140.041 557.978C139.649 558.789 139.758 559.653 140.285 559.908C140.812 560.162 141.557 559.711 141.949 558.9Z" fill="#246DD7"/>
<path d="M141.704 556.971L144.013 558.087L142.594 561.023L140.285 559.908L141.704 556.971Z" fill="#246DD7"/>
<path d="M144.258 560.016C144.649 559.205 144.54 558.342 144.013 558.087C143.486 557.833 142.742 558.283 142.35 559.094C141.958 559.905 142.067 560.768 142.594 561.023C143.121 561.278 143.866 560.827 144.258 560.016Z" fill="#7BE7F1"/>
<path d="M143.66 559.727C143.807 559.424 143.766 559.101 143.569 559.006C143.372 558.911 143.094 559.08 142.947 559.383C142.801 559.686 142.841 560.009 143.038 560.104C143.236 560.199 143.514 560.03 143.66 559.727Z" fill="#145284"/>
<path d="M143.569 559.006L146.68 560.731L146.074 561.738L143.038 560.104L143.569 559.006Z" fill="#145284"/>
<path d="M137.38 567.863C137.38 568.089 137.013 568.272 136.562 568.272C136.11 568.272 135.744 568.089 135.744 567.863C135.744 567.637 136.11 567.454 136.562 567.454C137.013 567.454 137.38 567.637 137.38 567.863Z" stroke="#7BE7F1" stroke-width="0.6965" stroke-miterlimit="10"/>
<path d="M141.686 565.343C141.686 565.569 141.319 565.752 140.868 565.752C140.416 565.752 140.05 565.569 140.05 565.343C140.05 565.117 140.416 564.934 140.868 564.934C141.319 564.934 141.686 565.117 141.686 565.343Z" stroke="#7BE7F1" stroke-width="0.6965" stroke-miterlimit="10"/>
<path d="M160.042 589.838L140.232 578.443V573.588L160.042 584.984V589.838Z" fill="#246DD7"/>
<path d="M167.895 581.551L160.043 585.69V584.983L167.895 580.845V581.551Z" fill="#1D64BB"/>
<path d="M160.796 585.29L160.043 585.69V589.838L160.796 589.438V585.29Z" fill="#1D64BB"/>
<path d="M140.232 573.588L150.742 567.863L172.579 578.375L160.042 584.984L140.232 573.588Z" fill="#337BF1"/>
<path d="M155.293 566.433C157.535 561.794 156.908 556.852 153.894 555.395C150.879 553.939 146.619 556.519 144.377 561.158C142.135 565.797 142.761 570.739 145.775 572.196C148.789 573.652 153.051 571.072 155.293 566.433Z" fill="#1D64BB"/>
<path d="M171.281 564.892L153.894 555.396L145.775 572.196L163.162 581.692L171.281 564.892Z" fill="#1D64BB"/>
<path d="M157.096 557.169C154.082 555.712 149.821 558.292 147.579 562.932C145.337 567.571 145.963 572.513 148.978 573.969" stroke="#337BF1" stroke-width="0.4645" stroke-miterlimit="10" stroke-linecap="round"/>
<path d="M164.466 584.761L159.068 581.774V568.544L164.466 571.531V584.761Z" fill="#246DD7"/>
<path d="M175.971 564.885L170.573 561.898L159.069 568.544L164.467 571.531L175.971 564.885Z" fill="#337BF1"/>
<path d="M175.971 564.886V578.073L164.467 584.762V571.532L175.971 564.886Z" fill="#1D64BB"/>
<path d="M175.11 577.253C176.955 573.434 176.44 569.365 173.958 568.166C171.476 566.966 167.968 569.09 166.122 572.91C164.276 576.73 164.792 580.798 167.274 581.997C169.756 583.197 173.264 581.073 175.11 577.253Z" fill="#145284"/>
<path d="M173.958 568.166L176.319 569.306L169.634 583.138L167.274 581.997L173.958 568.166Z" fill="#145284"/>
<path d="M177.362 578.342C179.208 574.522 178.692 570.454 176.211 569.254C173.729 568.055 170.221 570.179 168.375 573.999C166.529 577.818 167.045 581.887 169.527 583.086C172.009 584.285 175.516 582.161 177.362 578.342Z" fill="#1D64BB"/>
<path d="M176.54 577.945C177.638 575.672 177.331 573.252 175.855 572.538C174.379 571.825 172.291 573.088 171.193 575.361C170.095 577.633 170.402 580.054 171.878 580.767C173.355 581.48 175.442 580.217 176.54 577.945Z" stroke="#7BE7F1" stroke-width="0.6965" stroke-miterlimit="10"/>
<path d="M95.8589 311.985C95.6054 318.752 89.924 324.025 83.1801 323.772C80.1428 323.658 77.4375 322.467 75.3685 320.554L75.3685 320.555C75.3685 320.555 75.3469 320.533 75.2802 320.485C75.2147 320.437 75.1488 320.366 75.0398 320.249C74.9515 320.178 74.821 320.036 74.6466 319.87C72.4587 317.772 65.8612 311.417 58.3341 293.957C54.6737 285.467 48.2816 275.325 48.6098 266.568L48.6149 266.431C48.6242 266.182 48.6548 265.933 48.6877 265.685C49.3441 257.846 53.0522 251.03 60.9969 251.328C66.4505 251.532 71.79 255.945 74.161 260.407L74.1838 260.429C74.2657 260.637 74.7421 261.857 75.5091 263.767C75.5083 263.789 75.5298 263.813 75.5298 263.813C79.5663 274.003 93.6707 303.246 94.5854 306.069C94.5846 306.091 94.5846 306.091 94.6061 306.114C95.4923 307.87 95.9378 309.881 95.8589 311.985Z" fill="#337BF1"/>
<path d="M85.741 323.978C94.1854 324.079 102.921 301.535 104.894 291.601C106.866 281.67 109.229 277.475 104.762 275.83C100.295 274.186 95.5873 273.052 90.8302 283.612C86.0744 294.174 73.1052 303.668 72.9739 310.039C72.8402 316.411 74.7773 323.846 85.741 323.978Z" fill="#337BF1"/>
<path d="M89.7908 264.087C98.9066 265.846 103.322 268.981 105.321 271.262C107.321 273.541 109.079 275.486 106.919 278.324C104.759 281.161 104.84 283.607 100.594 283.869C96.3493 284.132 92.3956 282.763 88.7224 280.536C85.0505 278.31 88.9595 273.566 87.0351 270.956C83.1561 265.694 89.7908 264.087 89.7908 264.087Z" fill="#F4CCB8"/>
<path d="M46.4279 343.199C54.7953 337.048 72.4464 334.255 76.9165 346.607C81.3878 358.959 80.6358 409.338 79.8737 422.033C79.1117 434.728 78.4742 475.066 77.4469 482.533C76.4197 490 66.0688 494.313 56.4314 492.979C50.1721 492.111 53.2065 481.29 52.4208 454.39C51.8991 436.477 50.5506 423.86 50.5506 423.86C50.5506 423.86 47.7167 389.908 42.9951 374.147C39.6506 362.983 38.4964 349.031 46.4279 343.199Z" fill="#246DD7"/>
<path d="M20.128 343.763C28.9947 338.037 57.0401 337.478 60.4444 350.623C63.8486 363.767 52.2949 418.754 48.6404 436.471C45.9696 449.423 44.9673 493.122 40.4387 508.944C38.2809 516.478 27.5154 522.172 20.128 515.668C12.7394 509.165 13.1739 497.609 14.515 470.559C15.4388 451.947 17.0476 430.719 17.0476 430.719C17.0476 430.719 16.0925 400.226 13.3607 383.415C10.0511 363.04 11.7209 349.192 20.128 343.763Z" fill="#337BF1"/>
<path d="M12.0048 343.244V357.792C12.0048 357.792 17.644 362.465 29.8202 364.117C40.4387 365.559 52.7132 364.171 61.9048 362.004C71.5621 359.729 78.5249 354.181 78.5249 354.181V338.502C78.5249 338.502 63.9867 341.892 44.8589 342.347C25.7299 342.802 12.0048 343.244 12.0048 343.244Z" fill="#22283E"/>
<path d="M65.1785 352.738C58.6341 355.142 50.3788 357.108 41.4063 356.877C24.318 356.437 13.8899 353.617 12.5713 347.304C12.0845 344.945 11.9924 341.869 12.0621 338.286C12.0845 335.648 12.1779 332.736 12.224 329.613C12.27 326.979 12.2924 324.18 12.2003 321.29C12.1542 319.925 12.0845 318.538 11.9924 317.149C11.8766 315.416 11.6225 313.774 11.2515 312.201C8.96417 302.397 2.74221 294.927 3.04478 278.325C3.437 258.161 10.0039 258.577 28.2028 248.449C29.9361 247.478 31.9955 246.876 34.2368 246.53C40.9892 252.473 52.1133 262.901 54.7019 269.354C55.2112 270.625 55.7192 272.151 56.2521 273.886C56.4364 274.486 56.6219 275.111 56.8062 275.759C56.8062 275.827 56.8299 275.897 56.8523 275.943L57.1997 277.261C58.3788 281.724 59.5355 286.997 60.5304 292.291C60.6226 292.823 60.7384 293.356 60.8305 293.888C60.9226 294.419 61.0148 294.951 61.1069 295.46C61.2003 295.992 61.2924 296.524 61.3846 297.055C61.7096 298.86 61.986 300.616 62.2412 302.327C62.3558 303.114 62.4716 303.9 62.5874 304.663C63.0045 307.669 63.3507 310.444 63.5586 312.803C63.5823 313.103 63.6047 313.38 63.6283 313.658C63.6507 314.075 63.6981 314.537 63.7205 315.023C63.7665 315.508 63.7902 316.016 63.8126 316.549C63.8587 317.035 63.8823 317.543 63.906 318.052C63.9745 319.301 64.0442 320.642 64.1139 322.099C64.1376 322.631 64.1612 323.162 64.1837 323.718C64.2073 324.341 64.2534 324.989 64.2758 325.66C64.3219 327.047 64.3916 328.458 64.4377 329.937C64.5074 331.441 64.5535 333.014 64.5995 334.563C64.6693 336.112 64.7377 337.684 64.7851 339.233C64.7851 339.465 64.8075 339.695 64.8075 339.904C64.8535 341.499 64.8996 343.072 64.9457 344.597C65.0391 347.512 65.1088 350.286 65.1785 352.738Z" fill="#ECCC45"/>
<path d="M77.9671 346.263C75.6313 347.95 71.0977 350.542 65.1771 352.738C65.0625 348.807 64.9467 344.089 64.7848 339.233C64.669 336.135 64.5557 332.966 64.4399 329.938C64.3478 327.163 64.232 324.527 64.1162 322.099C63.9531 318.676 63.7912 315.74 63.6294 313.658C63.6069 313.38 63.582 313.104 63.5596 312.803C62.495 301.01 58.3798 278.533 54.7017 269.354C52.1131 262.901 40.9915 252.473 34.2391 246.53C43.0497 245.235 54.7029 248.149 60.4393 250.253C67.6536 252.889 78.4988 272.197 78.3369 292.455C78.2909 297.333 78.4515 302.513 78.6594 307.623C78.774 310.676 78.9371 313.705 79.0766 316.641C79.216 319.393 79.353 322.053 79.4688 324.597C79.607 327.88 79.7228 330.955 79.7464 333.707C79.8386 340.436 79.4464 345.176 77.9671 346.263Z" fill="#E1A233"/>
<path d="M79.7465 333.707C78.3134 334.539 76.671 335.348 75.0523 335.927C71.1911 337.245 67.838 338.332 64.7849 339.233C54.4029 342.332 47.6044 343.21 37.1764 343.719C27.463 344.205 17.081 340.436 12.0631 338.286C12.0855 335.65 12.1777 332.736 12.2237 329.613C18.0062 331.209 30.1687 334.307 37.1764 333.892C45.7317 333.383 56.3453 331.765 64.4387 329.938C68.4157 329.037 71.7913 328.088 74.0126 327.186C76.092 326.353 77.9199 325.452 79.4688 324.597C79.6083 327.88 79.7229 330.955 79.7465 333.707Z" fill="white"/>
<path d="M79.0753 316.641C77.7107 317.405 76.2078 318.146 74.6825 318.676C70.7043 320.064 67.2602 321.174 64.115 322.099C53.8937 325.105 47.1426 325.984 36.8278 326.493C27.4171 326.955 17.3813 323.44 12.2015 321.289C12.1555 319.925 12.0857 318.538 11.9936 317.151C11.8778 315.416 11.6238 313.774 11.2527 312.202C16.7575 313.751 29.545 317.081 36.8278 316.641C45.1989 316.133 55.536 314.583 63.5597 312.803C67.7682 311.855 71.3293 310.884 73.6428 309.935C75.5379 309.173 77.2026 308.386 78.6595 307.623C78.7753 310.676 78.9371 313.705 79.0753 316.641Z" fill="white"/>
<path d="M26.5394 276.568C25.6838 274.648 25.152 273.425 25.0598 273.216C25.7062 274.257 26.1931 275.389 26.5394 276.568Z" fill="#ECCC45"/>
<path d="M56.115 287.529C55.6058 287.945 55.1189 288.431 54.7031 288.986C55.4651 288.2 55.998 287.668 56.115 287.529Z" fill="#ECCC45"/>
<path d="M31.3281 243.082C29.4492 243.371 25.2556 248.864 25.2556 250.655C25.2556 255.801 34.106 268.664 34.106 268.664L46.9695 258.475L62.2161 261.834C62.2161 261.834 56.3814 253.467 54.1265 250.345C50.5405 245.385 44.3323 241.081 31.3281 243.082Z" fill="#337BF1"/>
<path d="M33.1171 242.952L34.7918 223.521C34.7918 223.521 37.7553 218.58 45.7653 218.605C53.7754 218.632 59.1233 221.541 60.2527 226.076C61.382 230.61 56.0341 248.424 53.7754 252.06C51.5142 255.696 50.2342 257.712 47.6331 257.928C44.6086 258.18 40.7299 258.313 36.7305 253.974C32.8033 249.713 32.761 245.509 33.1171 242.952Z" fill="#D2AA9B"/>
<path d="M16.7748 508.359C16.7748 508.359 22.5224 502.424 27.9574 501.008C33.3924 499.591 36.4604 499.828 39.1798 502.66C41.8992 505.492 49.4609 518.237 53.2412 521.305C57.0214 524.373 56.7861 528.858 55.8398 529.802C54.8947 530.745 51.5864 536.41 41.6626 535.23C31.7389 534.05 28.4305 523.429 23.4687 521.541C18.5068 519.653 17.878 517.765 16.7748 514.697C15.6704 511.628 16.7748 508.359 16.7748 508.359Z" fill="#22283E"/>
<path d="M55.8647 489.256C55.8647 489.256 57.8681 490.379 66.2093 483.595C70.1551 480.385 75.9064 480.767 78.373 483.272C80.8397 485.777 86.1029 491.984 93.0134 495.543C96.9181 497.555 97.202 502.064 96.4487 503.689C95.6767 505.355 92.7868 509.302 83.7857 508.257C74.7833 507.214 67.7906 501.328 62.1875 499.921C57.5232 498.75 56.5956 497.713 55.5945 495C54.5934 492.287 55.8647 489.256 55.8647 489.256Z" fill="#22283E"/>
<path d="M37.2046 204.786C32.1551 209.925 31.6306 218.874 32.3602 224.165C33.0886 229.455 35.9364 242.186 39.899 245.451C43.8615 248.716 48.5676 254.413 54.0483 254.782C59.5304 255.15 62.9382 248.968 65.4257 242.303C67.9132 235.64 73.5038 220.872 71.0959 213.505C68.6856 206.138 64.3424 198.907 54.63 198.126C44.9164 197.344 37.2046 204.786 37.2046 204.786Z" fill="#F4CCB8"/>
<path d="M36.1204 228.777C36.1153 219.032 43.2068 239.278 47.0831 219.959C47.9482 215.651 43.9252 206.132 36.7458 205.944C32.4142 205.831 28.6035 209.227 29.5013 218.322C30.3991 227.416 31.2719 237.133 34.4636 237.872C35.402 238.09 36.1248 235.225 36.1204 228.777Z" fill="#22283E"/>
<path d="M39.6351 225.504C39.2878 225.258 39.9947 218.903 36.1151 219.033C32.2343 219.162 33.0511 225.454 33.2442 226.403C33.4373 227.353 34.4595 233.508 36.605 232.864C38.7505 232.221 39.6351 225.504 39.6351 225.504Z" fill="#F4CCB8"/>
<path d="M37.0343 200.485C37.0343 200.485 32.2144 202.086 29.022 205.082C27.4399 206.566 25.7014 211.594 27.6858 212.635C29.6701 213.677 28.8662 212.647 31.0372 214.313C33.207 215.978 43.7153 225.133 46.8355 227.558C49.9556 229.983 55.2067 233.18 58.8287 233.328C62.4506 233.476 67.628 233.211 72.5908 230.244C77.5524 227.277 79.1692 224.799 78.4571 221.026C77.7439 217.251 74.8192 213.163 69.4017 208.666C63.9866 204.17 49.4589 198.245 37.0343 200.485Z" fill="#37B5F4"/>
<path d="M50.7046 189.212C46.0763 188.917 39.5877 191.024 35.6971 196.14C31.8065 201.256 29.264 204.596 29.5241 208.316C29.7854 212.037 37.5559 219.384 41.9169 221.992C46.2778 224.601 55.9183 227.891 62.9296 226.56C69.9397 225.228 73.0117 222.785 73.991 220.49C74.9728 218.195 75.69 211.546 73.3882 205.741C71.084 199.937 64.8978 190.115 50.7046 189.212Z" fill="#4BF1E1"/>
<path d="M40.1349 192.104C40.1349 192.104 40.6547 190.422 44.814 188.743C47.7811 187.547 51.8243 187.827 53.4549 188.346C55.0867 188.864 63.89 191.35 68.1114 198.479C73.0699 206.85 74.1122 213.756 73.6712 217.757C73.2288 221.759 69.7489 223.702 67.2935 223.955C64.8368 224.21 61.6004 222.374 61.1859 218.224C60.7727 214.075 59.6409 203.593 52.8842 198.294C46.1288 192.995 40.1349 192.104 40.1349 192.104Z" fill="#37B5F4"/>
<path d="M46.13 212.885C47.8108 206.396 51.4551 205.503 53.1159 206.671C54.7768 207.84 57.7659 215.984 57.197 219.207C56.6268 222.429 50.9305 220.971 48.6296 219.889C46.3287 218.806 45.2557 216.26 46.13 212.885Z" fill="#37B5F4"/>
<path d="M45.3796 324.59C45.3233 331.361 39.7968 336.796 33.0484 336.74C30.0091 336.715 27.2702 335.604 25.1477 333.752L25.1464 333.753C25.1464 333.753 25.1242 333.73 25.0561 333.684C24.9893 333.638 24.9213 333.569 24.809 333.455C24.7186 333.387 24.5841 333.249 24.4049 333.089C22.1568 331.055 17.9202 323.189 9.18143 306.303C3.87761 296.057 0.443877 288.075 0.516842 279.31L0.517972 279.175C0.520045 278.926 0.545776 278.677 0.569016 278.428C0.996755 270.573 4.17853 263.203 12.1284 263.27C17.5857 263.315 21.9969 268.751 24.4968 273.142L24.5177 273.165C24.6082 273.37 25.1186 274.574 25.9397 276.46C25.9395 276.484 25.963 276.506 25.963 276.506C30.2958 286.575 42.9366 315.918 43.9331 318.713C43.9329 318.736 43.9329 318.736 43.9552 318.758C44.8921 320.487 45.3972 322.485 45.3796 324.59Z" fill="#337BF1"/>
<path d="M73.538 296.757C73.4476 299.858 72.0982 302.605 69.9573 304.56C69.9573 304.56 60.896 313.717 55.1305 321.09C50.2992 327.267 44.964 334.236 38.5369 335.499L38.4908 335.497C36.7904 336.354 34.8281 336.796 32.7919 336.736C26.0225 336.539 20.7033 330.901 20.9005 324.132C20.9942 320.918 22.3482 318.012 24.4265 315.898C27.097 312.102 38.3967 304.568 40.7497 302.348C42.6134 300.59 50.7978 292.583 54.1577 289.281C54.9269 288.534 55.4623 288.028 55.5795 287.896C55.6038 287.873 55.6269 287.851 55.6269 287.851C57.5999 286.232 60.1174 285.331 62.8344 285.411C68.9231 285.588 73.7154 290.667 73.538 296.757Z" fill="#337BF1"/>
<path d="M73.9554 263.61L70.3285 308.181C70.1783 310.039 72.1748 311.303 73.7903 310.371L96.7121 297.131C97.3368 296.77 97.7581 296.137 97.8492 295.42L103.2 253.47C103.427 251.694 101.636 250.345 99.9906 251.054L75.3456 261.674C74.5594 262.013 74.0246 262.757 73.9554 263.61Z" fill="#22283E"/>
<path d="M65.2811 281.89C62.7712 283.439 60.1188 286.732 61.0065 291.037C61.893 295.339 63.6682 300.574 66.5581 302.296C69.4505 304.018 76.8903 299.676 78.845 297.707C80.801 295.739 81.7636 280.568 81.1909 277.262C80.6183 273.957 66.1118 281.378 65.2811 281.89Z" fill="#F4CCB8"/>
<path d="M91.2113 281.422C90.4218 284.72 88.6076 287.112 87.1587 286.765C85.7099 286.418 85.1739 283.465 85.9622 280.167C86.7505 276.87 88.5647 274.479 90.0135 274.826C91.4636 275.173 91.9996 278.125 91.2113 281.422Z" stroke="#4BF1E1" stroke-width="0.4645" stroke-linejoin="round"/>
<g opacity="0.2">
<path d="M337.279 96.9083L172.853 1.97762C168.322 -0.638395 164.638 1.46092 164.623 6.66806L164.01 222.535C163.995 227.743 167.657 234.083 172.188 236.699L336.614 331.631C341.145 334.247 344.83 332.148 344.845 326.94L345.457 111.073C345.472 105.866 341.81 99.5244 337.279 96.9083Z" fill="#37B5F4"/>
</g>
<path d="M337.279 96.9083L172.853 1.97762C168.322 -0.638395 164.638 1.46092 164.623 6.66806L164.01 222.535C163.995 227.743 167.657 234.083 172.188 236.699L336.614 331.631C341.145 334.247 344.83 332.148 344.845 326.94L345.457 111.073C345.472 105.866 341.81 99.5244 337.279 96.9083Z" stroke="#7CE7F2" stroke-width="1.5" stroke-linejoin="round"/>
<path d="M305.755 156.36L184.608 86.4156L184.255 210.687L305.402 280.631L305.755 156.36Z" stroke="#7CE7F2" stroke-width="0.5" stroke-linejoin="round"/>
<path d="M256.788 86.5028C227.564 69.7133 187.911 46.9335 187.911 46.9335" stroke="#EDCC45" stroke-width="3" stroke-linecap="round" stroke-linejoin="round"/>
<path d="M222.42 87.8475C208.187 79.6694 187.911 68.0211 187.911 68.0211" stroke="#D852EF" stroke-width="3" stroke-linecap="round" stroke-linejoin="round"/>
<path d="M323.417 293.395C323.417 293.395 323.417 241.138 323.417 209.635" stroke="#37B5F4" stroke-width="3" stroke-linecap="round" stroke-linejoin="round"/>
<path d="M187.297 212.444C187.297 212.444 194.902 149.349 210.155 158.453C225.204 167.437 219.243 206.995 231.789 214.484C244.336 221.974 241.764 143.432 257.782 151.761C267.509 156.818 264.03 178.182 275.681 185.302C286.887 192.15 301.126 137.13 301.126 137.13" stroke="#D852EF" stroke-width="0.9285" stroke-miterlimit="10" stroke-linecap="round"/>
</svg>
