<svg width="186" height="516" viewBox="0 0 186 516" fill="none" xmlns="http://www.w3.org/2000/svg">
<path d="M169.236 1.55058L93.9643 45.0084C91.748 46.2873 89.9545 49.3958 89.9613 51.9416L90.2246 144.776C90.2319 147.326 92.0378 148.355 94.253 147.076L169.525 103.618C171.744 102.337 173.535 99.2309 173.527 96.6811L173.263 3.84731C173.257 1.30093 171.455 0.269461 169.236 1.55058Z" fill="#37B5F4" fill-opacity="0.05" stroke="#7BE7F1" stroke-opacity="0.05" stroke-width="1.5" stroke-linejoin="round"/>
<path d="M55.3707 151.715L12.6946 176.353C10.4754 177.635 8.68425 180.736 8.69161 183.287L8.84163 236.187C8.84899 238.737 10.6515 239.764 12.8712 238.483L55.5462 213.844C57.7653 212.562 59.5593 209.459 59.5525 206.909L59.4025 154.009C59.3952 151.458 57.5898 150.433 55.3707 151.715Z" fill="#37B5F4" fill-opacity="0.05" stroke="#7BE7F1" stroke-opacity="0.05" stroke-width="1.5" stroke-linejoin="round"/>
<g opacity="0.2">
<path d="M181.708 10.4115L106.437 53.8699C104.221 55.1487 102.427 58.2567 102.434 60.8025L102.697 153.637C102.705 156.187 104.51 157.216 106.726 155.936L181.998 112.479C184.217 111.198 186.007 108.092 186 105.542L185.737 12.7076C185.729 10.1618 183.927 9.12977 181.708 10.4115Z" fill="#37B5F4" fill-opacity="0.05"/>
</g>
<g opacity="0.2">
<path d="M63.4932 159.023L20.8172 183.661C18.598 184.943 16.8074 188.044 16.8148 190.595L16.9648 243.495C16.9722 246.045 18.7741 247.072 20.9933 245.791L63.6693 221.152C65.8885 219.871 67.6825 216.767 67.6757 214.217L67.5257 161.317C67.5183 158.766 65.7124 157.742 63.4932 159.023Z" fill="#37B5F4" fill-opacity="0.05"/>
</g>
<path d="M125.564 475.666L67.5737 442.185C65.5137 440.996 62.1849 440.996 60.1418 442.182L2.52826 475.664C0.481182 476.854 0.491941 478.782 2.5526 479.971L60.5426 513.452C62.6033 514.642 65.928 514.639 67.9751 513.45L125.588 479.969C127.632 478.781 127.624 476.855 125.564 475.666Z" fill="#37B5F4" fill-opacity="0.05" stroke="#7BE7F1" stroke-opacity="0.05" stroke-width="2" stroke-linejoin="round"/>
<g opacity="0.2">
<path d="M125.564 463.052L67.5737 429.57C65.5137 428.382 62.1849 428.382 60.1418 429.569L2.52826 463.05C0.481182 464.24 0.491941 466.168 2.5526 467.357L60.5426 500.838C62.6033 502.027 65.928 502.025 67.9751 500.836L125.588 467.355C127.632 466.167 127.624 464.241 125.564 463.052Z" fill="#37B5F4" fill-opacity="0.05"/>
</g>
</svg>
